<svg width="512" height="512" viewBox="0 0 512 512" fill="none" xmlns="http://www.w3.org/2000/svg">
  <!-- Background -->
  <rect width="512" height="512" rx="120" fill="#FFFFFF"/>
  <!-- Decorative Ring -->
  <rect x="16" y="16" width="480" height="480" rx="104" stroke="#F3F4F6" stroke-width="4"/>

  <!-- Cloud Shape (Premium Dark Gradient) -->
  <path d="M 180 330 H 332 C 370 330, 400 300, 400 262 C 400 227, 374 198, 340 194 C 325 148, 282 114, 232 114 C 179 114, 135 151, 124 200 C 94 207, 72 234, 72 266 C 72 302, 100 330, 140 330 Z" fill="url(#cloud_grad)"/>

  <!-- Music Download Arrow -->
  <g transform="translate(10, -5)">
    <path d="M 222 170 V 262" stroke="#FFFFFF" stroke-width="16" stroke-linecap="round"/>
    <circle cx="192" cy="262" r="30" fill="#FFFFFF"/>
    <path d="M 182 232 L 222 272 L 262 232" stroke="#FFFFFF" stroke-width="16" stroke-linecap="round" stroke-linejoin="round"/>
    <path d="M 222 170 C 255 170, 275 190, 275 220" stroke="#FFFFFF" stroke-width="16" stroke-linecap="round" fill="none"/>
  </g>

  <defs>
    <linearGradient id="cloud_grad" x1="72" y1="114" x2="400" y2="330" gradientUnits="userSpaceOnUse">
      <stop offset="0%" stop-color="#4B5563"/>
      <stop offset="100%" stop-color="#111827"/>
    </linearGradient>
  </defs>
</svg>
